# xmcd
# 
# Track frame offsets:
#     150
#     22842
#     40761
#     62461
#     76849
#     93509
#     118275
#     133051
#     160973
#     175560
# 
# Disc length: 2816
# 
# Revision: 0
# Processed by: cddbd v1.5.2PL0 Copyright (c) Steve Scherf et al.
# Submitted via: fre:ac v1.0.27
# 
DISCID=730afe0a
DTITLE=Levellers - Levellers (Deluxe 2CD Edition)
DYEAR=1993
DGENRE=Folk/Rock
TTITLE0=Warning
TTITLE1=100 Years of Solitude
TTITLE2=The Likes of You and I
TTITLE3=Is This Art
TTITLE4=Dirty Davey
TTITLE5=This Garden
TTITLE6=Broken Circles
TTITLE7=Julie
TTITLE8=The Player
TTITLE9=Belaruse
EXTD=CD1
EXTT0=
EXTT1=
EXTT2=
EXTT3=
EXTT4=
EXTT5=
EXTT6=
EXTT7=
EXTT8=
EXTT9=
PLAYORDER=
